<svg xmlns="http://www.w3.org/2000/svg" xmlns:xlink="http://www.w3.org/1999/xlink" version="1.1" id="Layer_1" x="0px" y="0px" width="100px" height="77.52px" viewBox="0 0 100 77.52" enable-background="new 0 0 100 77.52" xml:space="preserve">
<polygon points="6.86,61.019 15.124,65.733 19.737,71.795 78.5,71.795 83.108,65.733 91.373,61.019 "/>
<polygon points="6.86,47.278 15.124,51.992 19.737,58.053 78.5,58.053 83.108,51.992 91.373,47.278 "/>
<polygon points="6.86,33.533 15.124,38.25 19.737,44.309 78.5,44.309 83.108,38.25 91.373,33.533 "/>
<polygon points="6.86,19.792 15.124,24.509 19.737,30.568 78.5,30.568 83.108,24.509 91.373,19.792 "/>
<polygon points="8.628,6.051 16.891,10.765 21.503,16.826 80.267,16.826 84.875,10.765 93.141,6.051 "/>
</svg>